/* XPM */
static char *_61d5956b2454d80991f2cccf64cafc1q9fGXOECXJeUtoui[] = {
/* columns rows colors chars-per-pixel */
"16 16 33 1 ",
"  c #000000",
". c #412320",
"X c #462C2D",
"o c #5B494E",
"O c #48546B",
"+ c #48556B",
"@ c #48556C",
"# c #4D5A72",
"$ c #505C74",
"% c #515E75",
"& c #525F75",
"* c #535F76",
"= c #556177",
"- c #57647F",
"; c #58657F",
": c #59667F",
"> c #596680",
", c #5B6880",
"< c #5A6883",
"1 c #616F8C",
"2 c #657188",
"3 c #6A768D",
"4 c #6F7F9F",
"5 c #7181A0",
"6 c #7382A2",
"7 c #7B8AA7",
"8 c #8290AC",
"9 c #8895AF",
"0 c #8997B1",
"q c #919DB5",
"w c #929EB6",
"e c #94A0B7",
"$ c #6F7F9F",
/* pixels */
"$$$$$$$$$$$$$$$$",
"$$$$$$$$$$$$$$$$",
"$$$$$$$09$$$$$$$",
"$$$$993ww399$$$$",
"&992ww>55>ww299&",
"=ee:55-45-55:ee=",
"#44144    44144#",
"@<<          <<@",
"&00          00&",
"#44          44#",
"@::          >>O",
"&88          88&",
"#44          44#",
"O>,          <:+",
"&77o........o77$",
"#44X........X45#"
};
