/* XPM */
static char *c572b0ba79f54ecbdc3a5cee968338fbA2T4wCmGsFjmdud6[] = {
/* columns rows colors chars-per-pixel */
"16 16 86 1 ",
"  c #000000",
". c #060608",
"X c #2C2C2D",
"o c #322C2C",
"O c #3D3738",
"+ c #3E3839",
"@ c #442624",
"# c #4E2A27",
"$ c #512D2A",
"% c #59302C",
"& c #5C322D",
"* c #4B3230",
"= c #623631",
"- c #653732",
"; c #673833",
": c #683A35",
"> c #6B3A35",
", c #6C3B36",
"< c #6D3B36",
"1 c #623A39",
"2 c #6B3F3D",
"3 c #6C403B",
"4 c #6B403E",
"5 c #6C413D",
"6 c #78423B",
"7 c #7E443E",
"8 c #474748",
"9 c #4B494A",
"0 c #5B4E4E",
"q c #584F5D",
"w c #584F5E",
"e c #565455",
"r c #5D5D5E",
"t c #6D4240",
"y c #6D4241",
"u c #6E4342",
"i c #6F4441",
"p c #6F4948",
"a c #704442",
"s c #734C4B",
"d c #48546B",
"f c #48556B",
"g c #48556C",
"h c #4D5A72",
"j c #505C74",
"k c #515E75",
"l c #525F75",
"z c #535F76",
"x c #625A6A",
"c c #655C6C",
"v c #556177",
"b c #57647F",
"n c #58657F",
"m c #59667F",
"M c #6B696A",
"N c #7E6161",
"B c #737374",
"V c #7B7B7C",
"C c #8E4E46",
"Z c #904E47",
"A c #8D5350",
"S c #826665",
"D c #8A7774",
"F c #596680",
"G c #5B6880",
"H c #5A6883",
"J c #657188",
"K c #6A768D",
"L c #6F7F9F",
"P c #7181A0",
"I c #7382A2",
"U c #7B8AA7",
"Y c #808080",
"T c #8C8789",
"R c #908280",
"E c #919395",
"W c #8290AC",
"Q c #8895AF",
"! c #8997B1",
"~ c #919DB5",
"^ c #929EB6",
"/ c #94A0B7",
"( c #A7A7A7",
") c gray68",
"_ c #B7B7B7",
"$ c #6F7F9F",
/* pixels */
"$$$$$$$$$$$$$$$$",
"$$$$$$$$$$$$$$$$",
"$$$$$$$!Q$$$$$$$",
"$$$$QQK^^KQQ$$$$",
"lQQJ^^FPPF^^JQQl",
"v//mPPbLLFPPm//v",
"hLLqxc#%%#cxqLLh",
"gHH1&>-<<->&1HHg",
"l!!ER<$8B0<;a!!l",
"hLLy;>Xr._@;yLLh",
"fmb5;@Y)()M3NbFd",
"lWWi;@Y).)e2SWWl",
"hLLy;@Y)V)9>sLLh",
"dFmp5=o++O*;2Hmf",
"kUUTD<-<,;<;yUUk",
"hLPA7C6CC6Z7ALLh"
};
