/* XPM */
static char *_7b6e801ed504abc8fd3877351c80f89rwvZuYfqUk5XtbU9[] = {
/* columns rows colors chars-per-pixel */
"128 16 7 1 ",
"  c #000000",
". c #3F2832",
"X c #9E2835",
"o c #E43B44",
"O c #F6757A",
"+ c #E4A672",
"@ c #EAD4AA",
/* pixels */
"     XXXXXX                                                                                                          XXXXXX     ",
"   XXooooooXX        XXXXXX          XXXXXX                                          XXXXXX          XXXXXX        XXooooooXX   ",
"  XoOOOOOOOOoX     XXooooooXX      XXXXXXXXXX        XXXXXX          XXXXXX        XXooooooXX      XXooooooXX     XoOOOOOOOOoX  ",
"  XOOOOOOOOOOX    XoOOOOOOOOoX    XXXooooooXXX     XXooooooXX      XXooooooXX     XoOOOOOOOOoX    XoOOOOOOOOoX    XOOOOOOOOOOX  ",
" XoOOOOOOOOOOoX   XOOOOOOOOOOX    XoOOOOOOOOoX    XoOOOOOOOOoX    XoOOOOOOOOoX    XOOOOOOOOOOX    XOOOOOOOOOOX   XoOOOOOOOOOOoX ",
" XoOX..ooX..OoX  XoOOOOOOOOOOoX  XXOOOOOOOOOOXX   XOOOOOOOOOOX    XOOOOOOOOOOX   XoOOOOOOOOOOoX  XoOOOOOOOOOOoX  XoOX..ooX..OoX ",
" XoO+..oo+..OoX  XoOX..ooX..OoX  XoOOOOOOOOOOoX  XoOOOOOOOOOOoX  XoOOOOOOOOOOoX  XoOX..ooX..OoX  XoOX..ooX..OoX  XoO+..oo+..OoX ",
" XoO@XXoo@XXOoX  XoO+..oo+..OoX  XoOX..ooX..OoX  XoOX..ooX..OoX  XoOX..ooX..OoX  XoO+..oo+..OoX  XoO+..oo+..OoX  XoO@XXoo@XXOoX ",
" XoOOOOOOOOOOoX  XoO@XXoo@XXOoX  XoO+..oo+..OoX  XoO+..oo+..OoX  XoO+..oo+..OoX  XoO@XXoo@XXOoX  XoO@XXoo@XXOoX  XoOOOOOOOOOOoX ",
"  XoOOOOOOOOoX   XoOOOOOOOOOOoX  XoO@XXoo@XXOoX  XoO@XXoo@XXOoX  XoO@XXoo@XXOoX  XoOOOOOOOOOOoX  XoOOOOOOOOOOoX   XoOOOOOOOOoX  ",
"  XoOOOOOOOOoX    XoOOOOOOOOoX   XoOOOOOOOOOOoX  XoOOOOOOOOOOoX  XoOOOOOOOOOOoX  XXoOOOOOOOOoXX   XoOOOOOOOOoX    XoOOOOOOOOoX  ",
"   XoOoOOoOoX     XoOOOOOOOOoX    XoOOOOOOOOoX    XoOOOOOOOOoX    XoOOOOOOOOoX    XoOOOOOOOOoX    XoOOOOOOOOoX     XoOoOOoOoX   ",
"   XooXooXooX      XoOoOOoOoX     XoOOOOOOOOoX    XoOOOOOOOOoX    XoOOOOOOOOoX    XXoOoOOoOoXX     XoOoOOoOoX      XooXooXooX   ",
"    XX XX XX       XooXooXooX      XoOoOOoOoX      XoOoOOoOoX      XoOoOOoOoX      XooXooXooX      XooXooXooX       XX XX XX    ",
"                    XX XX XX       XooXooXooX      XooXooXooX      XooXooXooX      XXXXXXXXXX       XX XX XX                    ",
"                                    XX XX XX        XX XX XX        XX XX XX        XX XX XX                                    "
};
